<?xml version="1.0" standalone="no"?>
<!DOCTYPE svg PUBLIC "-//W3C//DTD SVG 20010904//EN"
 "http://www.w3.org/TR/2001/REC-SVG-20010904/DTD/svg10.dtd">
<svg version="1.0" xmlns="http://www.w3.org/2000/svg"
 width="200.000000pt" height="200.000000pt" viewBox="0 0 200.000000 200.000000"
 preserveAspectRatio="xMidYMid meet">

<g transform="translate(0.000000,200.000000) scale(0.100000,-0.100000)"
fill="#000000" stroke="none">
<path d="M0 1000 l0 -1000 1000 0 1000 0 0 1000 0 1000 -1000 0 -1000 0 0
-1000z m1080 761 c4 -38 9 -46 32 -52 24 -6 30 -3 49 27 11 19 26 34 32 34 13
0 117 -58 117 -65 0 -2 -10 -20 -21 -40 l-22 -37 25 -25 25 -25 34 21 c19 12
37 21 41 21 8 0 68 -104 68 -119 0 -25 -20 -8 -47 38 l-27 50 -39 -22 -38 -21
-36 37 -37 36 17 36 c23 48 22 49 -20 69 -31 15 -38 15 -44 3 -5 -7 -16 -23
-26 -35 -17 -21 -21 -21 -63 -8 -44 13 -45 14 -48 60 l-3 46 -45 0 -44 0 0
-39 c0 -45 -9 -54 -68 -69 l-43 -10 -22 38 -22 39 -35 -21 c-19 -12 -36 -23
-38 -24 -2 -1 6 -20 17 -42 l20 -39 -39 -38 -38 -38 -37 23 c-20 12 -37 21
-39 19 -2 -2 -15 -23 -30 -46 -23 -39 -46 -56 -46 -35 0 16 61 112 72 112 6 0
25 -9 43 -20 l32 -20 24 26 24 25 -23 39 -22 39 61 36 c33 21 63 34 66 31 3
-3 16 -21 27 -39 19 -31 23 -33 54 -25 30 8 32 11 32 54 l0 45 73 -3 72 -3 5
-44z m-70 -31 c0 -5 -4 -10 -10 -10 -5 0 -10 5 -10 10 0 6 5 10 10 10 6 0 10
-4 10 -10z m-200 -65 c0 -8 -4 -15 -10 -15 -5 0 -10 7 -10 15 0 8 5 15 10 15
6 0 10 -7 10 -15z m401 2 c-1 -12 -15 -9 -19 4 -3 6 1 10 8 8 6 -3 11 -8 11
-12z m-78 -50 c29 -13 67 -37 86 -53 40 -33 91 -110 91 -136 0 -30 -15 -20
-33 21 -23 51 -85 114 -139 142 -31 16 -67 24 -124 27 -72 4 -89 1 -135 -20
-74 -34 -115 -71 -152 -137 -33 -59 -53 -50 -22 9 78 151 273 218 428 147z
m-483 -117 c0 -5 -4 -10 -10 -10 -5 0 -10 5 -10 10 0 6 5 10 10 10 6 0 10 -4
10 -10z m710 0 c0 -5 -4 -10 -10 -10 -5 0 -10 5 -10 10 0 6 5 10 10 10 6 0 10
-4 10 -10z m-277 -24 c13 -11 27 -12 50 -5 48 14 57 -6 57 -122 0 -117 -10
-149 -44 -149 -34 0 -46 26 -46 104 0 37 -4 66 -10 66 -6 0 -10 -29 -10 -66 0
-78 -12 -104 -46 -104 -31 0 -44 31 -44 111 0 87 -19 72 -22 -17 -2 -60 -7
-79 -20 -88 -13 -8 -23 -8 -35 0 -14 9 -19 28 -21 88 -2 55 -6 76 -15 73 -7
-2 -13 -29 -15 -70 -2 -53 -7 -69 -22 -77 -25 -13 -49 -3 -56 24 -2 11 -4 62
-2 111 l3 90 45 0 c25 0 55 6 67 13 12 6 41 12 65 12 24 0 50 5 58 10 21 13
42 12 63 -4z m-470 -86 c30 -26 43 -30 91 -30 l56 0 0 -45 0 -45 -59 0 c-53 0
-63 -3 -89 -30 -40 -39 -98 -42 -139 -5 l-28 24 40 1 c31 0 44 6 58 25 17 23
17 26 1 50 -13 20 -25 25 -55 25 -46 0 -49 11 -13 39 40 32 95 28 137 -9z
m906 4 c76 -63 29 -184 -71 -184 -27 0 -47 8 -71 30 -31 27 -42 30 -101 30
l-66 0 0 45 0 45 66 0 c59 0 70 3 101 30 44 39 98 41 142 4z m-289 -202 c0
-56 -12 -62 -115 -62 -88 0 -115 8 -115 35 0 6 16 12 35 13 19 1 43 3 53 4 9
0 29 -2 44 -6 23 -7 32 -3 55 22 37 40 43 39 43 -6z m76 1 c-10 -37 -61 -108
-99 -137 -131 -100 -307 -94 -430 14 -45 39 -92 115 -81 131 4 7 18 -9 36 -40
30 -51 75 -93 138 -127 27 -15 56 -19 130 -19 86 0 100 3 142 28 61 35 110 86
133 137 20 45 41 54 31 13z m-656 -63 c0 -5 -4 -10 -10 -10 -5 0 -10 5 -10 10
0 6 5 10 10 10 6 0 10 -4 10 -10z m710 0 c0 -5 -4 -10 -10 -10 -5 0 -10 5 -10
10 0 6 5 10 10 10 6 0 10 -4 10 -10z m100 0 c0 -14 -60 -120 -68 -120 -4 0
-22 9 -41 21 l-34 21 -25 -25 -25 -25 22 -38 23 -38 -24 -17 c-13 -10 -40 -26
-62 -36 -42 -19 -39 -20 -79 40 -10 15 -17 17 -39 8 -22 -8 -27 -17 -30 -53
l-3 -43 -72 -3 -73 -3 0 45 c0 41 -2 45 -32 55 -34 12 -35 12 -64 -41 -8 -16
-17 -28 -20 -28 -6 0 -93 49 -111 63 -10 7 -7 18 10 47 l22 39 -24 25 -24 26
-32 -20 c-18 -11 -37 -20 -43 -20 -11 0 -72 96 -72 113 0 19 29 4 39 -20 7
-16 18 -36 26 -47 13 -18 15 -18 50 4 l37 23 38 -38 39 -38 -21 -39 c-12 -21
-20 -39 -17 -41 2 -2 20 -13 39 -25 l35 -21 23 40 c16 28 28 39 39 35 8 -3 27
-9 41 -12 42 -10 52 -23 52 -66 l0 -39 43 3 c42 3 42 3 47 47 5 42 7 44 50 57
57 17 58 17 65 -3 3 -10 12 -26 19 -36 13 -17 15 -17 50 -1 41 20 42 21 19 69
l-17 36 37 36 36 37 38 -21 39 -22 27 50 c26 45 47 63 47 39z m-650 -165 c0
-8 -4 -15 -10 -15 -5 0 -10 7 -10 15 0 8 5 15 10 15 6 0 10 -7 10 -15z m404
-6 c-3 -5 -10 -7 -15 -3 -5 3 -7 10 -3 15 3 5 10 7 15 3 5 -3 7 -10 3 -15z
m-204 -59 c0 -5 -4 -10 -10 -10 -5 0 -10 5 -10 10 0 6 5 10 10 10 6 0 10 -4
10 -10z m-109 -297 l1 -98 24 53 c20 42 30 52 50 52 l24 0 -26 -52 c-28 -56
-29 -52 10 -140 16 -38 16 -38 -7 -38 -19 0 -29 11 -50 58 l-25 57 -1 -57 c-1
-55 -2 -58 -26 -58 l-25 0 0 160 0 160 25 0 c25 0 25 0 26 -97z m389 52 c0
-43 1 -45 24 -39 17 4 31 -1 45 -15 18 -18 21 -33 21 -102 0 -110 -6 -119 -80
-119 l-60 0 0 160 0 160 25 0 c23 0 25 -4 25 -45z m190 -115 l0 -160 -25 0
-25 0 0 160 0 160 25 0 25 0 0 -160z m-1050 125 c0 -9 -9 -15 -25 -15 l-25 0
0 -135 0 -135 -25 0 -25 0 0 135 0 135 -25 0 c-16 0 -25 6 -25 15 0 12 15 15
75 15 60 0 75 -3 75 -15z m180 -170 l0 -115 -58 0 c-32 0 -63 5 -70 12 -13 13
-17 173 -6 202 5 12 21 16 70 16 l64 0 0 -115z m178 83 c3 -23 -1 -28 -17 -28
-12 0 -21 7 -21 15 0 8 -9 15 -20 15 -16 0 -20 -7 -20 -34 0 -33 2 -35 38 -38
l37 -3 0 -60 0 -60 -53 -3 c-48 -3 -53 -1 -62 23 -13 35 -14 35 15 35 16 0 25
-6 25 -15 0 -8 9 -15 20 -15 16 0 20 7 20 34 0 33 -2 35 -37 38 -35 3 -39 6
-47 40 -7 26 -6 46 2 63 11 24 16 26 65 23 48 -3 52 -5 55 -30z m392 -83 l0
-115 -58 0 c-32 0 -63 5 -70 12 -13 13 -17 173 -6 202 5 12 21 16 70 16 l64 0
0 -115z m498 48 l3 -63 -46 0 c-45 0 -45 0 -45 -35 0 -29 4 -35 20 -35 11 0
23 7 26 15 9 22 44 19 44 -3 0 -10 -5 -23 -12 -30 -16 -16 -100 -16 -116 0
-13 13 -17 173 -6 203 5 13 19 15 68 13 l61 -3 3 -62z"/>
<path d="M633 1324 c-8 -20 8 -36 26 -25 15 10 8 41 -9 41 -6 0 -13 -7 -17
-16z"/>
<path d="M1418 1359 c-28 -16 -24 -73 7 -89 40 -21 75 0 75 44 0 48 -40 70
-82 45z"/>
<path d="M1333 1324 c-8 -20 8 -36 26 -25 15 10 8 41 -9 41 -6 0 -13 -7 -17
-16z"/>
<path d="M1290 495 c0 -78 2 -85 20 -85 18 0 20 7 20 85 0 78 -2 85 -20 85
-18 0 -20 -7 -20 -85z"/>
<path d="M520 495 c0 -78 2 -85 20 -85 18 0 20 7 20 85 0 78 -2 85 -20 85 -18
0 -20 -7 -20 -85z"/>
<path d="M1090 495 c0 -78 2 -85 20 -85 18 0 20 7 20 85 0 78 -2 85 -20 85
-18 0 -20 -7 -20 -85z"/>
<path d="M1590 544 c0 -31 3 -35 23 -32 17 2 23 11 25 36 3 29 1 32 -22 32
-23 0 -26 -4 -26 -36z"/>
</g>
</svg>
